<mxfile host="app.diagrams.net" modified="2024-03-18T21:50:54.903Z" agent="Mozilla/5.0 (Windows NT 10.0; Win64; x64) AppleWebKit/537.36 (KHTML, like Gecko) Chrome/122.0.0.0 Safari/537.36" etag="IRgMzbFA7t0lYmQgVglR" version="24.0.7" type="github">
  <diagram id="f106602c-feb2-e66a-4537-3a34d633f6aa" name="Page-1">
    <mxGraphModel dx="3762" dy="1425" grid="1" gridSize="10" guides="1" tooltips="1" connect="1" arrows="1" fold="1" page="1" pageScale="1" pageWidth="1169" pageHeight="827" background="none" math="0" shadow="0">
      <root>
        <mxCell id="0" />
        <mxCell id="1" parent="0" />
        <mxCell id="Lif8JBEafslfNm7ranTe-1" value="&lt;b&gt;Google &lt;/b&gt;Cloud Platform" style="fillColor=#F6F6F6;strokeColor=default;shadow=0;gradientColor=none;fontSize=14;align=left;spacing=10;fontColor=#717171;9E9E9E;verticalAlign=top;spacingTop=-4;fontStyle=0;spacingLeft=40;html=1;movable=1;resizable=1;rotatable=1;deletable=1;editable=1;locked=0;connectable=1;" parent="1" vertex="1">
          <mxGeometry x="-74.52" y="70" width="1389.52" height="679" as="geometry" />
        </mxCell>
        <mxCell id="Lif8JBEafslfNm7ranTe-2" value="" style="shape=mxgraph.gcp2.google_cloud_platform;fillColor=#F6F6F6;strokeColor=none;shadow=0;gradientColor=none;" parent="Lif8JBEafslfNm7ranTe-1" vertex="1">
          <mxGeometry width="23" height="20" relative="1" as="geometry">
            <mxPoint x="20" y="10" as="offset" />
          </mxGeometry>
        </mxCell>
        <mxCell id="91R2UP8EN9KCYm4vf8eS-37" value="External Application Load Balancer" style="sketch=0;points=[[0,0,0],[0.25,0,0],[0.5,0,0],[0.75,0,0],[1,0,0],[1,0.25,0],[1,0.5,0],[1,0.75,0],[1,1,0],[0.75,1,0],[0.5,1,0],[0.25,1,0],[0,1,0],[0,0.75,0],[0,0.5,0],[0,0.25,0]];rounded=1;absoluteArcSize=1;arcSize=2;html=1;strokeColor=default;gradientColor=none;shadow=0;dashed=1;fontSize=12;fontColor=#9E9E9E;align=left;verticalAlign=top;spacing=10;spacingTop=-4;whiteSpace=wrap;fillColor=none;dashPattern=1 4;" vertex="1" parent="Lif8JBEafslfNm7ranTe-1">
          <mxGeometry x="9.141578947368421" y="31" width="1124.4142105263159" height="624" as="geometry" />
        </mxCell>
        <mxCell id="91R2UP8EN9KCYm4vf8eS-3" value="&lt;h1&gt;Forwarding Rule&lt;/h1&gt;&lt;div&gt;google_compute_global_forwarding_rule&lt;br&gt;&lt;/div&gt;" style="sketch=0;points=[[0,0,0],[0.25,0,0],[0.5,0,0],[0.75,0,0],[1,0,0],[1,0.25,0],[1,0.5,0],[1,0.75,0],[1,1,0],[0.75,1,0],[0.5,1,0],[0.25,1,0],[0,1,0],[0,0.75,0],[0,0.5,0],[0,0.25,0]];rounded=1;absoluteArcSize=1;arcSize=2;html=1;strokeColor=default;gradientColor=none;shadow=0;dashed=0;fontSize=12;fontColor=#9E9E9E;align=center;verticalAlign=top;spacing=10;spacingTop=-4;whiteSpace=wrap;fillColor=#F1F8E9;" vertex="1" parent="Lif8JBEafslfNm7ranTe-1">
          <mxGeometry x="18.283157894736842" y="269.5" width="237.68105263157892" height="131" as="geometry" />
        </mxCell>
        <mxCell id="91R2UP8EN9KCYm4vf8eS-4" value="&lt;h1 style=&quot;font-size: 16px;&quot;&gt;&lt;font style=&quot;font-size: 16px;&quot;&gt;Target HTTP(S) proxy with SSL Certificate&lt;/font&gt;&lt;/h1&gt;&lt;div style=&quot;font-size: 23px;&quot;&gt;&lt;font style=&quot;font-size: 23px;&quot;&gt;&lt;br&gt;&lt;/font&gt;&lt;/div&gt;&lt;h1&gt;&lt;br&gt;&lt;/h1&gt;" style="sketch=0;points=[[0,0,0],[0.25,0,0],[0.5,0,0],[0.75,0,0],[1,0,0],[1,0.25,0],[1,0.5,0],[1,0.75,0],[1,1,0],[0.75,1,0],[0.5,1,0],[0.25,1,0],[0,1,0],[0,0.75,0],[0,0.5,0],[0,0.25,0]];rounded=1;absoluteArcSize=1;arcSize=2;html=1;strokeColor=default;gradientColor=none;shadow=0;dashed=0;fontSize=12;fontColor=#9E9E9E;align=center;verticalAlign=top;spacing=10;spacingTop=-4;whiteSpace=wrap;fillColor=#F1F8E9;" vertex="1" parent="Lif8JBEafslfNm7ranTe-1">
          <mxGeometry x="310.9552631578947" y="269.5" width="237.68105263157892" height="131" as="geometry" />
        </mxCell>
        <mxCell id="91R2UP8EN9KCYm4vf8eS-5" value="&lt;h1&gt;&lt;font color=&quot;#8c8c8c&quot;&gt;&lt;span style=&quot;font-size: 12px;&quot;&gt;google_compute_target_https_proxy&lt;/span&gt;&lt;/font&gt;&lt;br&gt;&lt;/h1&gt;" style="text;html=1;align=center;verticalAlign=middle;whiteSpace=wrap;rounded=0;" vertex="1" parent="Lif8JBEafslfNm7ranTe-1">
          <mxGeometry x="319.96" y="330" width="220.04" height="30" as="geometry" />
        </mxCell>
        <mxCell id="91R2UP8EN9KCYm4vf8eS-6" value="&lt;h1 style=&quot;font-size: 16px;&quot;&gt;Backend Service:&lt;/h1&gt;&lt;div&gt;name: fetchData&lt;br&gt;&lt;/div&gt;" style="sketch=0;points=[[0,0,0],[0.25,0,0],[0.5,0,0],[0.75,0,0],[1,0,0],[1,0.25,0],[1,0.5,0],[1,0.75,0],[1,1,0],[0.75,1,0],[0.5,1,0],[0.25,1,0],[0,1,0],[0,0.75,0],[0,0.5,0],[0,0.25,0]];rounded=1;absoluteArcSize=1;arcSize=2;html=1;strokeColor=default;gradientColor=none;shadow=0;dashed=0;fontSize=12;fontColor=#9E9E9E;align=center;verticalAlign=top;spacing=10;spacingTop=-4;whiteSpace=wrap;fillColor=#F1F8E9;" vertex="1" parent="Lif8JBEafslfNm7ranTe-1">
          <mxGeometry x="858.8696252631579" y="38" width="237.68105263157892" height="131" as="geometry" />
        </mxCell>
        <mxCell id="91R2UP8EN9KCYm4vf8eS-7" value="&lt;h1&gt;&lt;font color=&quot;#8c8c8c&quot;&gt;&lt;span style=&quot;font-size: 12px;&quot;&gt;google_compute_managed_ssl_certificate&lt;/span&gt;&lt;/font&gt;&lt;br&gt;&lt;/h1&gt;" style="text;html=1;align=center;verticalAlign=middle;whiteSpace=wrap;rounded=0;" vertex="1" parent="Lif8JBEafslfNm7ranTe-1">
          <mxGeometry x="313.96" y="350" width="226.04" height="30" as="geometry" />
        </mxCell>
        <mxCell id="91R2UP8EN9KCYm4vf8eS-23" value="&lt;h1 style=&quot;font-size: 16px;&quot;&gt;Backend Service:&lt;/h1&gt;&lt;div&gt;name: deleteData&lt;br&gt;&lt;/div&gt;" style="sketch=0;points=[[0,0,0],[0.25,0,0],[0.5,0,0],[0.75,0,0],[1,0,0],[1,0.25,0],[1,0.5,0],[1,0.75,0],[1,1,0],[0.75,1,0],[0.5,1,0],[0.25,1,0],[0,1,0],[0,0.75,0],[0,0.5,0],[0,0.25,0]];rounded=1;absoluteArcSize=1;arcSize=2;html=1;strokeColor=default;gradientColor=none;shadow=0;dashed=0;fontSize=12;fontColor=#9E9E9E;align=center;verticalAlign=top;spacing=10;spacingTop=-4;whiteSpace=wrap;fillColor=#F1F8E9;" vertex="1" parent="Lif8JBEafslfNm7ranTe-1">
          <mxGeometry x="858.8696252631579" y="197" width="237.68105263157892" height="131" as="geometry" />
        </mxCell>
        <mxCell id="91R2UP8EN9KCYm4vf8eS-24" value="&lt;h1 style=&quot;font-size: 16px;&quot;&gt;Backend Service:&lt;/h1&gt;&lt;div&gt;name: createData&lt;br&gt;&lt;/div&gt;" style="sketch=0;points=[[0,0,0],[0.25,0,0],[0.5,0,0],[0.75,0,0],[1,0,0],[1,0.25,0],[1,0.5,0],[1,0.75,0],[1,1,0],[0.75,1,0],[0.5,1,0],[0.25,1,0],[0,1,0],[0,0.75,0],[0,0.5,0],[0,0.25,0]];rounded=1;absoluteArcSize=1;arcSize=2;html=1;strokeColor=default;gradientColor=none;shadow=0;dashed=0;fontSize=12;fontColor=#9E9E9E;align=center;verticalAlign=top;spacing=10;spacingTop=-4;whiteSpace=wrap;fillColor=#F1F8E9;" vertex="1" parent="Lif8JBEafslfNm7ranTe-1">
          <mxGeometry x="858.8696252631579" y="358" width="237.68105263157892" height="131" as="geometry" />
        </mxCell>
        <mxCell id="91R2UP8EN9KCYm4vf8eS-25" value="&lt;h1 style=&quot;font-size: 16px;&quot;&gt;Backend Service:&lt;/h1&gt;&lt;div&gt;name: checkoutData&lt;br&gt;&lt;/div&gt;" style="sketch=0;points=[[0,0,0],[0.25,0,0],[0.5,0,0],[0.75,0,0],[1,0,0],[1,0.25,0],[1,0.5,0],[1,0.75,0],[1,1,0],[0.75,1,0],[0.5,1,0],[0.25,1,0],[0,1,0],[0,0.75,0],[0,0.5,0],[0,0.25,0]];rounded=1;absoluteArcSize=1;arcSize=2;html=1;strokeColor=default;gradientColor=none;shadow=0;dashed=0;fontSize=12;fontColor=#9E9E9E;align=center;verticalAlign=top;spacing=10;spacingTop=-4;whiteSpace=wrap;fillColor=#F1F8E9;" vertex="1" parent="Lif8JBEafslfNm7ranTe-1">
          <mxGeometry x="858.8696252631579" y="518" width="237.68105263157892" height="131" as="geometry" />
        </mxCell>
        <mxCell id="91R2UP8EN9KCYm4vf8eS-36" value="&lt;h1 style=&quot;&quot;&gt;&lt;span style=&quot;font-size: 16px;&quot;&gt;URL Map&lt;/span&gt;&lt;br&gt;&lt;span style=&quot;font-size: 16px;&quot;&gt;google_compute_url_map&lt;/span&gt;&lt;br&gt;&lt;/h1&gt;" style="sketch=0;points=[[0,0,0],[0.25,0,0],[0.5,0,0],[0.75,0,0],[1,0,0],[1,0.25,0],[1,0.5,0],[1,0.75,0],[1,1,0],[0.75,1,0],[0.5,1,0],[0.25,1,0],[0,1,0],[0,0.75,0],[0,0.5,0],[0,0.25,0]];rounded=1;absoluteArcSize=1;arcSize=2;html=1;strokeColor=default;gradientColor=none;shadow=0;dashed=0;fontSize=12;fontColor=#9E9E9E;align=center;verticalAlign=top;spacing=10;spacingTop=-4;whiteSpace=wrap;fillColor=#F1F8E9;" vertex="1" parent="Lif8JBEafslfNm7ranTe-1">
          <mxGeometry x="589.7638357894737" y="269.5" width="237.68105263157892" height="131" as="geometry" />
        </mxCell>
        <mxCell id="91R2UP8EN9KCYm4vf8eS-42" value="Network Endpoint Group&lt;div&gt;&lt;br&gt;&lt;/div&gt;&lt;div&gt;&lt;span style=&quot;color: rgb(59, 61, 69); font-family: SFMono-Regular, consolas, &amp;quot;Liberation Mono&amp;quot;, menlo, courier, monospace; font-size: 14px; font-weight: 700; background-color: rgb(250, 250, 250);&quot;&gt;neg-fetchdata&lt;/span&gt;&lt;br&gt;&lt;/div&gt;&lt;div&gt;&lt;span style=&quot;color: rgb(59, 61, 69); font-family: SFMono-Regular, consolas, &amp;quot;Liberation Mono&amp;quot;, menlo, courier, monospace; font-size: 14px; font-weight: 700; background-color: rgb(250, 250, 250);&quot;&gt;northamerica-northeast1&lt;/span&gt;&lt;span style=&quot;color: rgb(59, 61, 69); font-family: SFMono-Regular, consolas, &amp;quot;Liberation Mono&amp;quot;, menlo, courier, monospace; font-size: 14px; font-weight: 700; background-color: rgb(250, 250, 250);&quot;&gt;&lt;br&gt;&lt;/span&gt;&lt;/div&gt;" style="sketch=0;points=[[0,0,0],[0.25,0,0],[0.5,0,0],[0.75,0,0],[1,0,0],[1,0.25,0],[1,0.5,0],[1,0.75,0],[1,1,0],[0.75,1,0],[0.5,1,0],[0.25,1,0],[0,1,0],[0,0.75,0],[0,0.5,0],[0,0.25,0]];rounded=1;absoluteArcSize=1;arcSize=2;html=1;strokeColor=none;gradientColor=none;shadow=0;dashed=0;fontSize=12;fontColor=#9E9E9E;align=left;verticalAlign=top;spacing=10;spacingTop=-4;whiteSpace=wrap;fillColor=#F3E5F5;" vertex="1" parent="Lif8JBEafslfNm7ranTe-1">
          <mxGeometry x="1159.52" y="10" width="200.48" height="70" as="geometry" />
        </mxCell>
        <mxCell id="91R2UP8EN9KCYm4vf8eS-44" value="Network Endpoint Group&lt;div&gt;&lt;br&gt;&lt;/div&gt;&lt;div&gt;&lt;span style=&quot;color: rgb(59, 61, 69); font-family: SFMono-Regular, consolas, &amp;quot;Liberation Mono&amp;quot;, menlo, courier, monospace; font-size: 14px; font-weight: 700; background-color: rgb(250, 250, 250);&quot;&gt;neg-fetchdata&lt;/span&gt;&lt;br&gt;&lt;/div&gt;&lt;div&gt;&lt;span style=&quot;color: rgb(59, 61, 69); font-family: SFMono-Regular, consolas, &amp;quot;Liberation Mono&amp;quot;, menlo, courier, monospace; font-size: 14px; font-weight: 700; background-color: rgb(250, 250, 250);&quot;&gt;us-central1&lt;/span&gt;&lt;span style=&quot;color: rgb(59, 61, 69); font-family: SFMono-Regular, consolas, &amp;quot;Liberation Mono&amp;quot;, menlo, courier, monospace; font-size: 14px; font-weight: 700; background-color: rgb(250, 250, 250);&quot;&gt;&lt;br&gt;&lt;/span&gt;&lt;/div&gt;" style="sketch=0;points=[[0,0,0],[0.25,0,0],[0.5,0,0],[0.75,0,0],[1,0,0],[1,0.25,0],[1,0.5,0],[1,0.75,0],[1,1,0],[0.75,1,0],[0.5,1,0],[0.25,1,0],[0,1,0],[0,0.75,0],[0,0.5,0],[0,0.25,0]];rounded=1;absoluteArcSize=1;arcSize=2;html=1;strokeColor=none;gradientColor=none;shadow=0;dashed=0;fontSize=12;fontColor=#9E9E9E;align=left;verticalAlign=top;spacing=10;spacingTop=-4;whiteSpace=wrap;fillColor=#F3E5F5;" vertex="1" parent="Lif8JBEafslfNm7ranTe-1">
          <mxGeometry x="1159.52" y="89" width="200.48" height="70" as="geometry" />
        </mxCell>
        <mxCell id="91R2UP8EN9KCYm4vf8eS-45" value="Network Endpoint Group&lt;div&gt;&lt;br&gt;&lt;/div&gt;&lt;div&gt;&lt;span style=&quot;color: rgb(59, 61, 69); font-family: SFMono-Regular, consolas, &amp;quot;Liberation Mono&amp;quot;, menlo, courier, monospace; font-size: 14px; font-weight: 700; background-color: rgb(250, 250, 250);&quot;&gt;neg-&lt;/span&gt;&lt;span style=&quot;background-color: rgb(250, 250, 250); color: rgb(59, 61, 69); font-family: SFMono-Regular, consolas, &amp;quot;Liberation Mono&amp;quot;, menlo, courier, monospace; font-size: 14px; font-weight: 700;&quot;&gt;deletedata&lt;/span&gt;&lt;br&gt;&lt;/div&gt;&lt;div&gt;&lt;span style=&quot;color: rgb(59, 61, 69); font-family: SFMono-Regular, consolas, &amp;quot;Liberation Mono&amp;quot;, menlo, courier, monospace; font-size: 14px; font-weight: 700; background-color: rgb(250, 250, 250);&quot;&gt;northamerica-northeast1&lt;/span&gt;&lt;span style=&quot;color: rgb(59, 61, 69); font-family: SFMono-Regular, consolas, &amp;quot;Liberation Mono&amp;quot;, menlo, courier, monospace; font-size: 14px; font-weight: 700; background-color: rgb(250, 250, 250);&quot;&gt;&lt;br&gt;&lt;/span&gt;&lt;/div&gt;" style="sketch=0;points=[[0,0,0],[0.25,0,0],[0.5,0,0],[0.75,0,0],[1,0,0],[1,0.25,0],[1,0.5,0],[1,0.75,0],[1,1,0],[0.75,1,0],[0.5,1,0],[0.25,1,0],[0,1,0],[0,0.75,0],[0,0.5,0],[0,0.25,0]];rounded=1;absoluteArcSize=1;arcSize=2;html=1;strokeColor=none;gradientColor=none;shadow=0;dashed=0;fontSize=12;fontColor=#9E9E9E;align=left;verticalAlign=top;spacing=10;spacingTop=-4;whiteSpace=wrap;fillColor=#F3E5F5;" vertex="1" parent="Lif8JBEafslfNm7ranTe-1">
          <mxGeometry x="1159.52" y="190" width="200.48" height="70" as="geometry" />
        </mxCell>
        <mxCell id="91R2UP8EN9KCYm4vf8eS-46" value="Network Endpoint Group&lt;div&gt;&lt;br&gt;&lt;/div&gt;&lt;div&gt;&lt;span style=&quot;color: rgb(59, 61, 69); font-family: SFMono-Regular, consolas, &amp;quot;Liberation Mono&amp;quot;, menlo, courier, monospace; font-size: 14px; font-weight: 700; background-color: rgb(250, 250, 250);&quot;&gt;neg-&lt;/span&gt;&lt;span style=&quot;background-color: rgb(250, 250, 250); color: rgb(59, 61, 69); font-family: SFMono-Regular, consolas, &amp;quot;Liberation Mono&amp;quot;, menlo, courier, monospace; font-size: 14px; font-weight: 700;&quot;&gt;deletedata&lt;/span&gt;&lt;br&gt;&lt;/div&gt;&lt;div&gt;&lt;span style=&quot;color: rgb(59, 61, 69); font-family: SFMono-Regular, consolas, &amp;quot;Liberation Mono&amp;quot;, menlo, courier, monospace; font-size: 14px; font-weight: 700; background-color: rgb(250, 250, 250);&quot;&gt;us-central1&lt;/span&gt;&lt;span style=&quot;color: rgb(59, 61, 69); font-family: SFMono-Regular, consolas, &amp;quot;Liberation Mono&amp;quot;, menlo, courier, monospace; font-size: 14px; font-weight: 700; background-color: rgb(250, 250, 250);&quot;&gt;&lt;br&gt;&lt;/span&gt;&lt;/div&gt;" style="sketch=0;points=[[0,0,0],[0.25,0,0],[0.5,0,0],[0.75,0,0],[1,0,0],[1,0.25,0],[1,0.5,0],[1,0.75,0],[1,1,0],[0.75,1,0],[0.5,1,0],[0.25,1,0],[0,1,0],[0,0.75,0],[0,0.5,0],[0,0.25,0]];rounded=1;absoluteArcSize=1;arcSize=2;html=1;strokeColor=none;gradientColor=none;shadow=0;dashed=0;fontSize=12;fontColor=#9E9E9E;align=left;verticalAlign=top;spacing=10;spacingTop=-4;whiteSpace=wrap;fillColor=#F3E5F5;" vertex="1" parent="Lif8JBEafslfNm7ranTe-1">
          <mxGeometry x="1159.52" y="268.5" width="200.48" height="69" as="geometry" />
        </mxCell>
        <mxCell id="91R2UP8EN9KCYm4vf8eS-49" value="Network Endpoint Group&lt;div&gt;&lt;br&gt;&lt;/div&gt;&lt;div&gt;&lt;span style=&quot;color: rgb(59, 61, 69); font-family: SFMono-Regular, consolas, &amp;quot;Liberation Mono&amp;quot;, menlo, courier, monospace; font-size: 14px; font-weight: 700; background-color: rgb(250, 250, 250);&quot;&gt;neg-&lt;/span&gt;&lt;span style=&quot;background-color: rgb(250, 250, 250); color: rgb(59, 61, 69); font-family: SFMono-Regular, consolas, &amp;quot;Liberation Mono&amp;quot;, menlo, courier, monospace; font-size: 14px; font-weight: 700;&quot;&gt;createdata&lt;/span&gt;&lt;br&gt;&lt;/div&gt;&lt;div&gt;&lt;span style=&quot;color: rgb(59, 61, 69); font-family: SFMono-Regular, consolas, &amp;quot;Liberation Mono&amp;quot;, menlo, courier, monospace; font-size: 14px; font-weight: 700; background-color: rgb(250, 250, 250);&quot;&gt;northamerica-northeast1&lt;/span&gt;&lt;span style=&quot;color: rgb(59, 61, 69); font-family: SFMono-Regular, consolas, &amp;quot;Liberation Mono&amp;quot;, menlo, courier, monospace; font-size: 14px; font-weight: 700; background-color: rgb(250, 250, 250);&quot;&gt;&lt;br&gt;&lt;/span&gt;&lt;/div&gt;" style="sketch=0;points=[[0,0,0],[0.25,0,0],[0.5,0,0],[0.75,0,0],[1,0,0],[1,0.25,0],[1,0.5,0],[1,0.75,0],[1,1,0],[0.75,1,0],[0.5,1,0],[0.25,1,0],[0,1,0],[0,0.75,0],[0,0.5,0],[0,0.25,0]];rounded=1;absoluteArcSize=1;arcSize=2;html=1;strokeColor=none;gradientColor=none;shadow=0;dashed=0;fontSize=12;fontColor=#9E9E9E;align=left;verticalAlign=top;spacing=10;spacingTop=-4;whiteSpace=wrap;fillColor=#F3E5F5;" vertex="1" parent="Lif8JBEafslfNm7ranTe-1">
          <mxGeometry x="1159.52" y="352" width="200.48" height="70" as="geometry" />
        </mxCell>
        <mxCell id="91R2UP8EN9KCYm4vf8eS-47" value="Network Endpoint Group&lt;div&gt;&lt;br&gt;&lt;/div&gt;&lt;div&gt;&lt;span style=&quot;color: rgb(59, 61, 69); font-family: SFMono-Regular, consolas, &amp;quot;Liberation Mono&amp;quot;, menlo, courier, monospace; font-size: 14px; font-weight: 700; background-color: rgb(250, 250, 250);&quot;&gt;neg-&lt;/span&gt;&lt;span style=&quot;background-color: rgb(250, 250, 250); color: rgb(59, 61, 69); font-family: SFMono-Regular, consolas, &amp;quot;Liberation Mono&amp;quot;, menlo, courier, monospace; font-size: 14px; font-weight: 700;&quot;&gt;createdata&lt;/span&gt;&lt;br&gt;&lt;/div&gt;&lt;div&gt;&lt;span style=&quot;color: rgb(59, 61, 69); font-family: SFMono-Regular, consolas, &amp;quot;Liberation Mono&amp;quot;, menlo, courier, monospace; font-size: 14px; font-weight: 700; background-color: rgb(250, 250, 250);&quot;&gt;us-central1&lt;/span&gt;&lt;span style=&quot;color: rgb(59, 61, 69); font-family: SFMono-Regular, consolas, &amp;quot;Liberation Mono&amp;quot;, menlo, courier, monospace; font-size: 14px; font-weight: 700; background-color: rgb(250, 250, 250);&quot;&gt;&lt;br&gt;&lt;/span&gt;&lt;/div&gt;" style="sketch=0;points=[[0,0,0],[0.25,0,0],[0.5,0,0],[0.75,0,0],[1,0,0],[1,0.25,0],[1,0.5,0],[1,0.75,0],[1,1,0],[0.75,1,0],[0.5,1,0],[0.25,1,0],[0,1,0],[0,0.75,0],[0,0.5,0],[0,0.25,0]];rounded=1;absoluteArcSize=1;arcSize=2;html=1;strokeColor=none;gradientColor=none;shadow=0;dashed=0;fontSize=12;fontColor=#9E9E9E;align=left;verticalAlign=top;spacing=10;spacingTop=-4;whiteSpace=wrap;fillColor=#F3E5F5;" vertex="1" parent="Lif8JBEafslfNm7ranTe-1">
          <mxGeometry x="1159.76" y="433" width="200.24" height="71" as="geometry" />
        </mxCell>
        <mxCell id="91R2UP8EN9KCYm4vf8eS-50" value="Network Endpoint Group&lt;div&gt;&lt;br&gt;&lt;/div&gt;&lt;div&gt;&lt;span style=&quot;color: rgb(59, 61, 69); font-family: SFMono-Regular, consolas, &amp;quot;Liberation Mono&amp;quot;, menlo, courier, monospace; font-size: 14px; font-weight: 700; background-color: rgb(250, 250, 250);&quot;&gt;neg-&lt;/span&gt;&lt;span style=&quot;background-color: rgb(250, 250, 250); color: rgb(59, 61, 69); font-family: SFMono-Regular, consolas, &amp;quot;Liberation Mono&amp;quot;, menlo, courier, monospace; font-size: 14px; font-weight: 700;&quot;&gt;checkoutdata&lt;/span&gt;&lt;br&gt;&lt;/div&gt;&lt;div&gt;&lt;span style=&quot;color: rgb(59, 61, 69); font-family: SFMono-Regular, consolas, &amp;quot;Liberation Mono&amp;quot;, menlo, courier, monospace; font-size: 14px; font-weight: 700; background-color: rgb(250, 250, 250);&quot;&gt;northamerica-northeast1&lt;/span&gt;&lt;span style=&quot;color: rgb(59, 61, 69); font-family: SFMono-Regular, consolas, &amp;quot;Liberation Mono&amp;quot;, menlo, courier, monospace; font-size: 14px; font-weight: 700; background-color: rgb(250, 250, 250);&quot;&gt;&lt;br&gt;&lt;/span&gt;&lt;/div&gt;" style="sketch=0;points=[[0,0,0],[0.25,0,0],[0.5,0,0],[0.75,0,0],[1,0,0],[1,0.25,0],[1,0.5,0],[1,0.75,0],[1,1,0],[0.75,1,0],[0.5,1,0],[0.25,1,0],[0,1,0],[0,0.75,0],[0,0.5,0],[0,0.25,0]];rounded=1;absoluteArcSize=1;arcSize=2;html=1;strokeColor=none;gradientColor=none;shadow=0;dashed=0;fontSize=12;fontColor=#9E9E9E;align=left;verticalAlign=top;spacing=10;spacingTop=-4;whiteSpace=wrap;fillColor=#F3E5F5;" vertex="1" parent="Lif8JBEafslfNm7ranTe-1">
          <mxGeometry x="1159.76" y="516" width="200.24" height="72" as="geometry" />
        </mxCell>
        <mxCell id="91R2UP8EN9KCYm4vf8eS-48" value="Network Endpoint Group&lt;div&gt;&lt;br&gt;&lt;/div&gt;&lt;div&gt;&lt;span style=&quot;color: rgb(59, 61, 69); font-family: SFMono-Regular, consolas, &amp;quot;Liberation Mono&amp;quot;, menlo, courier, monospace; font-size: 14px; font-weight: 700; background-color: rgb(250, 250, 250);&quot;&gt;neg-&lt;/span&gt;&lt;span style=&quot;background-color: rgb(250, 250, 250); color: rgb(59, 61, 69); font-family: SFMono-Regular, consolas, &amp;quot;Liberation Mono&amp;quot;, menlo, courier, monospace; font-size: 14px; font-weight: 700;&quot;&gt;checkoutdata&amp;nbsp;&lt;/span&gt;&lt;br&gt;&lt;/div&gt;&lt;div&gt;&lt;span style=&quot;color: rgb(59, 61, 69); font-family: SFMono-Regular, consolas, &amp;quot;Liberation Mono&amp;quot;, menlo, courier, monospace; font-size: 14px; font-weight: 700; background-color: rgb(250, 250, 250);&quot;&gt;us-central1&lt;/span&gt;&lt;span style=&quot;color: rgb(59, 61, 69); font-family: SFMono-Regular, consolas, &amp;quot;Liberation Mono&amp;quot;, menlo, courier, monospace; font-size: 14px; font-weight: 700; background-color: rgb(250, 250, 250);&quot;&gt;&lt;br&gt;&lt;/span&gt;&lt;/div&gt;" style="sketch=0;points=[[0,0,0],[0.25,0,0],[0.5,0,0],[0.75,0,0],[1,0,0],[1,0.25,0],[1,0.5,0],[1,0.75,0],[1,1,0],[0.75,1,0],[0.5,1,0],[0.25,1,0],[0,1,0],[0,0.75,0],[0,0.5,0],[0,0.25,0]];rounded=1;absoluteArcSize=1;arcSize=2;html=1;strokeColor=none;gradientColor=none;shadow=0;dashed=0;fontSize=12;fontColor=#9E9E9E;align=left;verticalAlign=top;spacing=10;spacingTop=-4;whiteSpace=wrap;fillColor=#F3E5F5;" vertex="1" parent="Lif8JBEafslfNm7ranTe-1">
          <mxGeometry x="1159.76" y="598" width="200.24" height="70" as="geometry" />
        </mxCell>
        <mxCell id="91R2UP8EN9KCYm4vf8eS-56" value="" style="endArrow=classic;html=1;rounded=0;exitX=1;exitY=0.5;exitDx=0;exitDy=0;exitPerimeter=0;entryX=0;entryY=0.5;entryDx=0;entryDy=0;entryPerimeter=0;" edge="1" parent="Lif8JBEafslfNm7ranTe-1">
          <mxGeometry width="50" height="50" relative="1" as="geometry">
            <mxPoint x="255.96421052631604" y="336.0000000000002" as="sourcePoint" />
            <mxPoint x="310.95526315789493" y="336.0000000000002" as="targetPoint" />
          </mxGeometry>
        </mxCell>
        <mxCell id="91R2UP8EN9KCYm4vf8eS-58" value="" style="endArrow=classic;html=1;rounded=0;exitX=1;exitY=0.5;exitDx=0;exitDy=0;exitPerimeter=0;entryX=0;entryY=0.5;entryDx=0;entryDy=0;entryPerimeter=0;" edge="1" parent="Lif8JBEafslfNm7ranTe-1">
          <mxGeometry width="50" height="50" relative="1" as="geometry">
            <mxPoint x="545.6363157894743" y="335.0000000000002" as="sourcePoint" />
            <mxPoint x="590.7638357894734" y="335.0000000000002" as="targetPoint" />
          </mxGeometry>
        </mxCell>
        <mxCell id="91R2UP8EN9KCYm4vf8eS-60" value="" style="endArrow=classic;html=1;rounded=0;exitX=1;exitY=0.5;exitDx=0;exitDy=0;exitPerimeter=0;entryX=0;entryY=0.5;entryDx=0;entryDy=0;entryPerimeter=0;edgeStyle=orthogonalEdgeStyle;" edge="1" parent="Lif8JBEafslfNm7ranTe-1" source="91R2UP8EN9KCYm4vf8eS-36" target="91R2UP8EN9KCYm4vf8eS-6">
          <mxGeometry width="50" height="50" relative="1" as="geometry">
            <mxPoint x="1054.52" y="450" as="sourcePoint" />
            <mxPoint x="1104.52" y="400" as="targetPoint" />
          </mxGeometry>
        </mxCell>
        <mxCell id="91R2UP8EN9KCYm4vf8eS-61" value="" style="endArrow=classic;html=1;rounded=0;exitX=1;exitY=0.5;exitDx=0;exitDy=0;exitPerimeter=0;entryX=0;entryY=0.5;entryDx=0;entryDy=0;entryPerimeter=0;edgeStyle=orthogonalEdgeStyle;" edge="1" parent="Lif8JBEafslfNm7ranTe-1" source="91R2UP8EN9KCYm4vf8eS-36" target="91R2UP8EN9KCYm4vf8eS-23">
          <mxGeometry width="50" height="50" relative="1" as="geometry">
            <mxPoint x="1054.52" y="450" as="sourcePoint" />
            <mxPoint x="1104.52" y="400" as="targetPoint" />
          </mxGeometry>
        </mxCell>
        <mxCell id="91R2UP8EN9KCYm4vf8eS-62" value="" style="endArrow=classic;html=1;rounded=0;exitX=1;exitY=0.5;exitDx=0;exitDy=0;exitPerimeter=0;entryX=0;entryY=0.5;entryDx=0;entryDy=0;entryPerimeter=0;edgeStyle=orthogonalEdgeStyle;" edge="1" parent="Lif8JBEafslfNm7ranTe-1" source="91R2UP8EN9KCYm4vf8eS-36" target="91R2UP8EN9KCYm4vf8eS-24">
          <mxGeometry width="50" height="50" relative="1" as="geometry">
            <mxPoint x="1054.52" y="450" as="sourcePoint" />
            <mxPoint x="1104.52" y="400" as="targetPoint" />
          </mxGeometry>
        </mxCell>
        <mxCell id="91R2UP8EN9KCYm4vf8eS-63" value="" style="endArrow=classic;html=1;rounded=0;exitX=1;exitY=0.5;exitDx=0;exitDy=0;exitPerimeter=0;entryX=0;entryY=0.5;entryDx=0;entryDy=0;entryPerimeter=0;edgeStyle=orthogonalEdgeStyle;" edge="1" parent="Lif8JBEafslfNm7ranTe-1" source="91R2UP8EN9KCYm4vf8eS-36" target="91R2UP8EN9KCYm4vf8eS-25">
          <mxGeometry width="50" height="50" relative="1" as="geometry">
            <mxPoint x="1054.52" y="450" as="sourcePoint" />
            <mxPoint x="1104.52" y="400" as="targetPoint" />
          </mxGeometry>
        </mxCell>
        <mxCell id="91R2UP8EN9KCYm4vf8eS-64" value="" style="endArrow=classic;html=1;rounded=0;exitX=1;exitY=0.5;exitDx=0;exitDy=0;exitPerimeter=0;entryX=0;entryY=0.5;entryDx=0;entryDy=0;entryPerimeter=0;edgeStyle=orthogonalEdgeStyle;" edge="1" parent="Lif8JBEafslfNm7ranTe-1" source="91R2UP8EN9KCYm4vf8eS-6" target="91R2UP8EN9KCYm4vf8eS-42">
          <mxGeometry width="50" height="50" relative="1" as="geometry">
            <mxPoint x="1054.52" y="450" as="sourcePoint" />
            <mxPoint x="1104.52" y="400" as="targetPoint" />
          </mxGeometry>
        </mxCell>
        <mxCell id="91R2UP8EN9KCYm4vf8eS-65" value="" style="endArrow=classic;html=1;rounded=0;exitX=1;exitY=0.5;exitDx=0;exitDy=0;exitPerimeter=0;entryX=0;entryY=0.5;entryDx=0;entryDy=0;entryPerimeter=0;edgeStyle=orthogonalEdgeStyle;" edge="1" parent="Lif8JBEafslfNm7ranTe-1" source="91R2UP8EN9KCYm4vf8eS-6" target="91R2UP8EN9KCYm4vf8eS-44">
          <mxGeometry width="50" height="50" relative="1" as="geometry">
            <mxPoint x="1054.52" y="450" as="sourcePoint" />
            <mxPoint x="1104.52" y="400" as="targetPoint" />
          </mxGeometry>
        </mxCell>
        <mxCell id="91R2UP8EN9KCYm4vf8eS-66" value="" style="endArrow=classic;html=1;rounded=0;exitX=1;exitY=0.5;exitDx=0;exitDy=0;exitPerimeter=0;entryX=0;entryY=0.5;entryDx=0;entryDy=0;entryPerimeter=0;edgeStyle=orthogonalEdgeStyle;" edge="1" parent="Lif8JBEafslfNm7ranTe-1" source="91R2UP8EN9KCYm4vf8eS-23" target="91R2UP8EN9KCYm4vf8eS-45">
          <mxGeometry width="50" height="50" relative="1" as="geometry">
            <mxPoint x="1184.52" y="440" as="sourcePoint" />
            <mxPoint x="1234.52" y="390" as="targetPoint" />
          </mxGeometry>
        </mxCell>
        <mxCell id="91R2UP8EN9KCYm4vf8eS-67" value="" style="endArrow=classic;html=1;rounded=0;exitX=1;exitY=0.5;exitDx=0;exitDy=0;exitPerimeter=0;entryX=0;entryY=0.5;entryDx=0;entryDy=0;entryPerimeter=0;edgeStyle=orthogonalEdgeStyle;" edge="1" parent="Lif8JBEafslfNm7ranTe-1" source="91R2UP8EN9KCYm4vf8eS-23" target="91R2UP8EN9KCYm4vf8eS-46">
          <mxGeometry width="50" height="50" relative="1" as="geometry">
            <mxPoint x="1184.52" y="440" as="sourcePoint" />
            <mxPoint x="1234.52" y="390" as="targetPoint" />
          </mxGeometry>
        </mxCell>
        <mxCell id="91R2UP8EN9KCYm4vf8eS-68" value="" style="endArrow=classic;html=1;rounded=0;exitX=1;exitY=0.5;exitDx=0;exitDy=0;exitPerimeter=0;entryX=0;entryY=0.5;entryDx=0;entryDy=0;entryPerimeter=0;edgeStyle=orthogonalEdgeStyle;" edge="1" parent="Lif8JBEafslfNm7ranTe-1" source="91R2UP8EN9KCYm4vf8eS-24" target="91R2UP8EN9KCYm4vf8eS-49">
          <mxGeometry width="50" height="50" relative="1" as="geometry">
            <mxPoint x="1184.52" y="440" as="sourcePoint" />
            <mxPoint x="1234.52" y="390" as="targetPoint" />
          </mxGeometry>
        </mxCell>
        <mxCell id="91R2UP8EN9KCYm4vf8eS-70" value="" style="endArrow=classic;html=1;rounded=0;exitX=1;exitY=0.5;exitDx=0;exitDy=0;exitPerimeter=0;entryX=0;entryY=0.5;entryDx=0;entryDy=0;entryPerimeter=0;edgeStyle=orthogonalEdgeStyle;" edge="1" parent="Lif8JBEafslfNm7ranTe-1" source="91R2UP8EN9KCYm4vf8eS-24" target="91R2UP8EN9KCYm4vf8eS-47">
          <mxGeometry width="50" height="50" relative="1" as="geometry">
            <mxPoint x="1184.52" y="440" as="sourcePoint" />
            <mxPoint x="1234.52" y="390" as="targetPoint" />
          </mxGeometry>
        </mxCell>
        <mxCell id="91R2UP8EN9KCYm4vf8eS-71" value="" style="endArrow=classic;html=1;rounded=0;exitX=1;exitY=0.5;exitDx=0;exitDy=0;exitPerimeter=0;entryX=0;entryY=0.5;entryDx=0;entryDy=0;entryPerimeter=0;edgeStyle=orthogonalEdgeStyle;" edge="1" parent="Lif8JBEafslfNm7ranTe-1" source="91R2UP8EN9KCYm4vf8eS-25" target="91R2UP8EN9KCYm4vf8eS-50">
          <mxGeometry width="50" height="50" relative="1" as="geometry">
            <mxPoint x="1184.52" y="440" as="sourcePoint" />
            <mxPoint x="1234.52" y="390" as="targetPoint" />
          </mxGeometry>
        </mxCell>
        <mxCell id="91R2UP8EN9KCYm4vf8eS-72" value="" style="endArrow=classic;html=1;rounded=0;exitX=1;exitY=0.5;exitDx=0;exitDy=0;exitPerimeter=0;entryX=0;entryY=0.5;entryDx=0;entryDy=0;entryPerimeter=0;edgeStyle=orthogonalEdgeStyle;" edge="1" parent="Lif8JBEafslfNm7ranTe-1" source="91R2UP8EN9KCYm4vf8eS-25" target="91R2UP8EN9KCYm4vf8eS-48">
          <mxGeometry width="50" height="50" relative="1" as="geometry">
            <mxPoint x="1184.52" y="440" as="sourcePoint" />
            <mxPoint x="1234.52" y="390" as="targetPoint" />
          </mxGeometry>
        </mxCell>
        <mxCell id="91R2UP8EN9KCYm4vf8eS-1" value="" style="image;aspect=fixed;perimeter=ellipsePerimeter;html=1;align=center;shadow=0;dashed=0;spacingTop=3;image=img/lib/active_directory/internet_cloud.svg;" vertex="1" parent="1">
          <mxGeometry x="-280" y="340" width="190.48" height="120" as="geometry" />
        </mxCell>
        <mxCell id="91R2UP8EN9KCYm4vf8eS-2" value="Internet/Client" style="text;html=1;align=center;verticalAlign=middle;whiteSpace=wrap;rounded=0;fontSize=16;" vertex="1" parent="1">
          <mxGeometry x="-252.14" y="450" width="134.76" height="30" as="geometry" />
        </mxCell>
        <mxCell id="91R2UP8EN9KCYm4vf8eS-55" value="" style="endArrow=classic;html=1;rounded=0;entryX=0;entryY=0.5;entryDx=0;entryDy=0;entryPerimeter=0;" edge="1" parent="1" source="91R2UP8EN9KCYm4vf8eS-1" target="91R2UP8EN9KCYm4vf8eS-3">
          <mxGeometry width="50" height="50" relative="1" as="geometry">
            <mxPoint x="980" y="520" as="sourcePoint" />
            <mxPoint x="1030" y="470" as="targetPoint" />
          </mxGeometry>
        </mxCell>
      </root>
    </mxGraphModel>
  </diagram>
</mxfile>
